# xmcd
#
# Track frame offsets:
#	150
#	10599
#	40950
#	57975
#	81301
#	118629
#	139590
#	165717
#	193311
#	212657
#	233007
#
# Disc length: 3445 seconds
#
# Revision: 0
# Processed by: cddbd v1.4PL0 Copyright (c) Steve Scherf et al.
# Submitted via: MusicWizard 6.0.0
#
DISCID=920d730b
DTITLE=Gordon Wycliffe - The Gospel Truth
DYEAR=2000
DGENRE=Posaune
TTITLE0=Jesus Loves Me
TTITLE1=The Deacon's Moan
TTITLE2=What a Friend We Have in Jesus
TTITLE3=The Lord's Prayer
TTITLE4=There's a Tree
TTITLE5=The Gospel Truth
TTITLE6=Take My Hand, Precious Lord
TTITLE7=The Hallelujah Scat
TTITLE8=We Have Come Into This House
TTITLE9=The Battle Hymn of the Republic
TTITLE10=The Message
EXTD=Wycliffe Gordon tb, tu, voc - Marcus Printup tp, voc - Victor Goines ts, bs, cl - Eric Reed p, v
EXTD=oc - Reuben Rogers b - Winard Harper dr - Carrie Smith voc;
EXTT0=
EXTT1=
EXTT2=
EXTT3=
EXTT4=
EXTT5=
EXTT6=
EXTT7=
EXTT8=
EXTT9=
EXTT10=
PLAYORDER=
